#!OML:ASF H:\Dans Jumps\Project 1\Capture day 1\Session 1\subject.ASF
:FULLY-SPECIFIED
:DEGREES
262
root 0.365058 16.9282 -3.23039 -0.452689 1.16113 -1.84406
lowerback 3.38808 -0.0681646 -0.673763
upperback 4.30103 -0.125953 1.45073
thorax 2.52497 -0.105669 1.87011
lowerneck -11.1898 -0.148058 -1.89065
upperneck 33.3384 -0.194781 1.40256
head 12.9872 -0.136766 0.852039
rclavicle 4.62174e-015 1.86858e-014
rhumerus -12.3177 -15.7562 -86.6676
rradius 24.8118
rwrist 31.7197
rhand -24.997 -26.542
rfingers 7.12502
rthumb 1.51442 -56.5163
lclavicle 4.62174e-015 1.86858e-014
lhumerus -9.76537 14.1839 86.2874
lradius 14.6105
lwrist 2.62158
lhand -28.2213 -9.28569
lfingers 7.12502
lthumb -1.59969 20.6881
rfemur -22.6256 -5.00245 20.2991
rtibia 43.0281
rfoot -17.8107 -1.10743
rtoes 8.23836
lfemur -22.9873 6.62736 -16.571
ltibia 41.2441
lfoot -14.8405 6.65838
ltoes -3.01265
263
root 0.372378 16.9864 -3.21663 0.0533149 1.16846 -1.77506
lowerback 3.23486 -0.139255 -0.664247
upperback 4.19151 -0.219719 1.44447
thorax 2.50091 -0.151404 1.85886
lowerneck -11.1856 -0.11179 -1.88027
upperneck 33.1965 -0.12968 1.35416
head 12.9245 -0.113146 0.839073
rclavicle -4.29872e-015 -1.39149e-015
rhumerus -12.4741 -15.3004 -86.6351
rradius 25.0837
rwrist 31.338
rhand -25.0176 -26.4629
rfingers 7.12502
rthumb 1.49457 -56.4374
lclavicle -4.29872e-015 -1.39149e-015
lhumerus -10.1933 15.2748 85.8512
lradius 14.1192
lwrist 1.44471
lhand -28.1383 -9.10427
lfingers 7.12502
lthumb -1.51953 20.8701
rfemur -22.5568 -4.94404 20.2252
rtibia 41.9959
rfoot -17.4574 -1.06393
rtoes 8.64775
lfemur -22.8722 6.68732 -16.7071
ltibia 40.1226
lfoot -14.6044 6.37486
ltoes -2.83725
264
root 0.379501 17.039 -3.20321 0.5263 1.18347 -1.69239
lowerback 3.10264 -0.206988 -0.674431
upperback 4.09508 -0.30933 1.43692
thorax 2.47865 -0.195669 1.85714
lowerneck -11.1936 -0.0819225 -1.86389
upperneck 33.0479 -0.0752013 1.30553
head 12.862 -0.0933154 0.8235
rclavicle 3.2551e-015 -2.68359e-015
rhumerus -12.6292 -14.8864 -86.5811
rradius 25.3469
rwrist 30.9705
rhand -25.0583 -26.4039
rfingers 7.12502
rthumb 1.4553 -56.3787
lclavicle 3.2551e-015 -2.68359e-015
lhumerus -10.5988 16.2934 85.4244
lradius 13.6695
lwrist 0.356167
lhand -27.9827 -8.83903
lfingers 7.12502
lthumb -1.3692 21.1363
rfemur -22.4942 -4.9 20.132
rtibia 41.0469
rfoot -17.1436 -1.00811
rtoes 9.09375
lfemur -22.7604 6.77667 -16.8576
ltibia 39.0654
lfoot -14.3863 6.07227
ltoes -2.66418
265
root 0.386648 17.0864 -3.19019 0.962537 1.19666 -1.5883
lowerback 2.99389 -0.269041 -0.712325
upperback 4.01356 -0.391748 1.42768
thorax 2.45865 -0.237149 1.86911
lowerneck -11.1979 -0.0575896 -1.85895
upperneck 32.8843 -0.0289257 1.26585
head 12.7929 -0.0771878 0.812178
rclavicle 3.72721e-015 -6.95746e-016
rhumerus -12.7832 -14.5211 -86.5029
rradius 25.601
rwrist 30.6206
rhand -25.1128 -26.3624
rfingers 7.12502
rthumb 1.40263 -56.3376
lclavicle 3.72721e-015 -6.95746e-016
lhumerus -10.9784 17.2102 85.0182
lradius 13.2642
lwrist -0.609475
lhand -27.767 -8.54643
lfingers 7.12502
lthumb -1.16087 21.4302
rfemur -22.4385 -4.86388 20.0113
rtibia 40.1823
rfoot -16.8591 -0.940868
rtoes 9.52852
lfemur -22.6477 6.8969 -17.032
ltibia 38.0728
lfoot -14.1763 5.75761
ltoes -2.48414
266
root 0.394064 17.1288 -3.17743 1.35565 1.20168 -1.47353
lowerback 2.91256 -0.324027 -0.763004
upperback 3.95057 -0.464954 1.41708
thorax 2.44231 -0.274453 1.88678
lowerneck -11.2205 -0.0360261 -1.85394
upperneck 32.7268 0.0125175 1.2295
head 12.7307 -0.0626493 0.801622
rclavicle 1.36664e-015 9.93923e-016
rhumerus -12.9297 -14.2083 -86.4051
rradius 25.8405
rwrist 30.2871
rhand -25.1769 -26.3346
rfingers 7.12502
rthumb 1.34075 -56.3102
lclavicle 1.36664e-015 9.93923e-016
lhumerus -11.3255 17.9877 84.6407
lradius 12.9103
lwrist -1.43022
lhand -27.5048 -8.2067
lfingers 7.12502
lthumb -0.907621 21.7711
rfemur -22.383 -4.8329 19.8755
rtibia 39.3978
rfoot -16.5969 -0.86798
rtoes 9.90891
lfemur -22.5277 7.04982 -17.2192
ltibia 37.149
lfoot -13.9728 5.44151
ltoes -2.30645
267
root 0.401902 17.1662 -3.16495 1.70417 1.19427 -1.3555
lowerback 2.85814 -0.370783 -0.816659
upperback 3.90639 -0.527325 1.40638
thorax 2.43006 -0.306539 1.90602
lowerneck -11.246 -0.0176596 -1.85585
upperneck 32.5697 0.0485806 1.20088
head 12.6697 -0.0502414 0.794577
rclavicle 6.93262e-015 -5.96354e-015
rhumerus -13.0613 -13.9623 -86.2893
rradius 26.0531
rwrist 29.9907
rhand -25.2362 -26.3257
rfingers 7.12502
rthumb 1.28347 -56.3016
lclavicle 6.93262e-015 -5.96354e-015
lhumerus -11.6389 18.6163 84.2995
lradius 12.6084
lwrist -2.1232
lhand -27.2066 -7.83621
lfingers 7.12502
lthumb -0.619645 22.1426
rfemur -22.3251 -4.80072 19.7319
rtibia 38.689
rfoot -16.351 -0.790995
rtoes 10.2278
lfemur -22.4019 7.22664 -17.4109
ltibia 36.2986
lfoot -13.774 5.14254
ltoes -2.14121
268
root 0.410085 17.199 -3.15299 2.01186 1.17244 -1.24379
lowerback 2.82981 -0.408034 -0.86293
upperback 3.88047 -0.577104 1.39697
thorax 2.42156 -0.332282 1.92247
lowerneck -11.2961 -0.00183852 -1.85698
upperneck 32.433 0.0810121 1.17298
head 12.6227 -0.039222 0.787466
rclavicle -1.03865e-014 3.18055e-015
rhumerus -13.1739 -13.7861 -86.1582
rradius 26.2335
rwrist 29.7327
rhand -25.2827 -26.3292
rfingers 7.12502
rthumb 1.23849 -56.3054
lclavicle -1.03865e-014 3.18055e-015
lhumerus -11.9219 19.0571 84.0034
lradius 12.3708
lwrist -2.68642
lhand -26.8935 -7.42561
lfingers 7.12502
lthumb -0.317239 22.5539
rfemur -22.2688 -4.75586 19.5915
rtibia 38.0516
rfoot -16.1187 -0.719016
rtoes 10.4814
lfemur -22.2778 7.41786 -17.5956
ltibia 35.5276
lfoot -13.5822 4.87249
ltoes -1.99038
269
root 0.418548 17.2272 -3.14143 2.28395 1.13157 -1.14094
lowerback 2.82029 -0.434895 -0.901192
upperback 3.87181 -0.613145 1.39042
thorax 2.41981 -0.351149 1.93737
lowerneck -11.3651 0.0115295 -1.8604
upperneck 32.3152 0.110702 1.1456
head 12.5878 -0.0296197 0.780834
rclavicle -1.71452e-015 -1.39149e-015
rhumerus -13.2576 -13.6866 -86.0137
rradius 26.3698
rwrist 29.5343
rhand -25.3118 -26.3426
rfingers 7.12502
rthumb 1.21041 -56.3189
lclavicle -1.71452e-015 -1.39149e-015
lhumerus -12.1681 19.3248 83.7553
lradius 12.1865
lwrist -3.16989
lhand -26.577 -7.01505
lfingers 7.12502
lthumb -0.0114942 22.9647
rfemur -22.2179 -4.69182 19.4574
rtibia 37.4844
rfoot -15.9062 -0.655851
rtoes 10.6867
lfemur -22.162 7.61629 -17.7702
ltibia 34.8398
lfoot -13.3979 4.64084
ltoes -1.84892
270
root 0.427201 17.2513 -3.13048 2.5237 1.07668 -1.04476
lowerback 2.83062 -0.452243 -0.931037
upperback 3.87579 -0.636547 1.38386
thorax 2.41938 -0.363571 1.94759
lowerneck -11.4425 0.0225105 -1.86716
upperneck 32.216 0.136863 1.12177
head 12.5626 -0.0215448 0.775885
rclavicle 7.40473e-015 -1.78906e-015
rhumerus -13.3134 -13.6664 -85.8588
rradius 26.454
rwrist 29.3969
rhand -25.3177 -26.3574
rfingers 7.12502
rthumb 1.20473 -56.3338
lclavicle 7.40473e-015 -1.78906e-015
lhumerus -12.3951 19.3926 83.5568
lradius 12.0733
lwrist -3.56917
lhand -26.2705 -6.6114
lfingers 7.12502
lthumb 0.284496 23.3682
rfemur -22.1755 -4.6131 19.3279
rtibia 36.9871
rfoot -15.7157 -0.606249
rtoes 10.8402
lfemur -22.059 7.80791 -17.9366
ltibia 34.237
lfoot -13.2194 4.44442
ltoes -1.66394
271
root 0.435678 17.2715 -3.12045 2.73893 1.00807 -0.956732
lowerback 2.85814 -0.460299 -0.956383
upperback 3.89015 -0.647691 1.38025
thorax 2.41956 -0.369872 1.95837
lowerneck -11.5408 0.0320115 -1.87655
upperneck 32.1449 0.161959 1.09829
head 12.5536 -0.014275 0.771714
rclavicle -8.29926e-015 6.55989e-015
rhumerus -13.3408 -13.7179 -85.6922
rradius 26.4879
rwrist 29.3358
rhand -25.2857 -26.3869
rfingers 7.12502
rthumb 1.23562 -56.3631
lclavicle -8.29926e-015 6.55989e-015
lhumerus -12.5959 19.2877 83.4093
lradius 12.0135
lwrist -3.92078
lhand -25.9936 -6.28417
lfingers 7.12502
lthumb 0.551932 23.6949
rfemur -22.1513 -4.51214 19.2071
rtibia 36.5599
rfoot -15.5499 -0.582006
rtoes 10.9332
lfemur -21.9791 7.99265 -18.0935
ltibia 33.7165
lfoot -13.041 4.27466
ltoes -1.42887
272
root 0.443856 17.2881 -3.11118 2.93222 0.930139 -0.876297
lowerback 2.90109 -0.460402 -0.978874
upperback 3.9125 -0.648369 1.37975
thorax 2.41891 -0.370969 1.9708
lowerneck -11.6527 0.0392208 -1.8925
upperneck 32.0983 0.184728 1.07818
head 12.5577 -0.00846502 0.769935
rclavicle 7.35503e-015 -8.34896e-015
rhumerus -13.3386 -13.8419 -85.5136
rradius 26.4668
rwrist 29.3663
rhand -25.2037 -26.4387
rfingers 7.12502
rthumb 1.31482 -56.4144
lclavicle 7.35503e-015 -8.34896e-015
lhumerus -12.7716 19.0368 83.3105
lradius 12.0095
lwrist -4.26066
lhand -25.7308 -5.93919
lfingers 7.12502
lthumb 0.805782 24.039
rfemur -22.1452 -4.39519 19.0949
rtibia 36.2005
rfoot -15.4114 -0.579234
rtoes 10.9969
lfemur -21.9218 8.16657 -18.2416
ltibia 33.274
lfoot -12.8647 4.1211
ltoes -1.11866
